<mxfile host="app.diagrams.net" modified="2021-08-05T18:07:03.564Z" agent="5.0 (Macintosh; Intel Mac OS X 10_15_7) AppleWebKit/537.36 (KHTML, like Gecko) Chrome/92.0.4515.107 Safari/537.36" etag="2fto-Ilivzi8v8O-FD9L" version="14.9.4" type="github">
  <diagram id="Du1h6iVQc_4GmqpZkfJo" name="Page-1">
    <mxGraphModel dx="867" dy="465" grid="1" gridSize="10" guides="1" tooltips="1" connect="1" arrows="1" fold="1" page="1" pageScale="1" pageWidth="827" pageHeight="1169" math="0" shadow="0">
      <root>
        <mxCell id="0" />
        <mxCell id="1" parent="0" />
        <mxCell id="mERwpeLYzUTZPkXKmUp4-6" style="edgeStyle=orthogonalEdgeStyle;rounded=0;orthogonalLoop=1;jettySize=auto;html=1;exitX=1;exitY=0.5;exitDx=0;exitDy=0;entryX=0;entryY=0.5;entryDx=0;entryDy=0;" edge="1" parent="1" source="mERwpeLYzUTZPkXKmUp4-1" target="mERwpeLYzUTZPkXKmUp4-3">
          <mxGeometry relative="1" as="geometry" />
        </mxCell>
        <mxCell id="mERwpeLYzUTZPkXKmUp4-1" value="Website Gathering" style="rounded=1;html=1;strokeColor=#36393d;fillColor=#B5F5FF;shadow=1;sketch=0;glass=0;fontFamily=Garamond;fontSize=13;labelBackgroundColor=none;labelBorderColor=none;fontStyle=1;whiteSpace=wrap;spacingTop=0;" vertex="1" parent="1">
          <mxGeometry x="30" y="220" width="120" height="60" as="geometry" />
        </mxCell>
        <mxCell id="mERwpeLYzUTZPkXKmUp4-10" style="edgeStyle=orthogonalEdgeStyle;rounded=0;orthogonalLoop=1;jettySize=auto;html=1;exitX=0.5;exitY=1;exitDx=0;exitDy=0;" edge="1" parent="1" source="mERwpeLYzUTZPkXKmUp4-3" target="mERwpeLYzUTZPkXKmUp4-4">
          <mxGeometry relative="1" as="geometry" />
        </mxCell>
        <mxCell id="mERwpeLYzUTZPkXKmUp4-3" value="Web Scraper" style="rounded=1;whiteSpace=wrap;html=1;strokeColor=#36393d;fillColor=#FFC299;shadow=1;fontFamily=Garamond;fontSize=13;fontStyle=1" vertex="1" parent="1">
          <mxGeometry x="290" y="220" width="120" height="60" as="geometry" />
        </mxCell>
        <mxCell id="mERwpeLYzUTZPkXKmUp4-11" style="edgeStyle=orthogonalEdgeStyle;rounded=0;orthogonalLoop=1;jettySize=auto;html=1;exitX=0;exitY=0.5;exitDx=0;exitDy=0;entryX=1;entryY=0.5;entryDx=0;entryDy=0;" edge="1" parent="1" source="mERwpeLYzUTZPkXKmUp4-4" target="mERwpeLYzUTZPkXKmUp4-5">
          <mxGeometry relative="1" as="geometry" />
        </mxCell>
        <mxCell id="mERwpeLYzUTZPkXKmUp4-4" value="Policy Database" style="rounded=1;whiteSpace=wrap;html=1;fillColor=#cdeb8b;strokeColor=#36393d;shadow=1;fontFamily=Garamond;fontSize=13;fontStyle=1" vertex="1" parent="1">
          <mxGeometry x="290" y="360" width="120" height="60" as="geometry" />
        </mxCell>
        <mxCell id="mERwpeLYzUTZPkXKmUp4-5" value="Analysis" style="rounded=1;whiteSpace=wrap;html=1;strokeColor=#ae4132;fillColor=#FA9E9E;shadow=1;fontFamily=Garamond;fontSize=13;fontStyle=1" vertex="1" parent="1">
          <mxGeometry x="30" y="360" width="120" height="60" as="geometry" />
        </mxCell>
        <mxCell id="mERwpeLYzUTZPkXKmUp4-9" value="&lt;font face=&quot;Garamond&quot; style=&quot;font-size: 13px&quot;&gt;&lt;b&gt;Website URLs&lt;/b&gt;&lt;/font&gt;" style="text;html=1;strokeColor=none;fillColor=none;align=center;verticalAlign=middle;whiteSpace=wrap;rounded=0;" vertex="1" parent="1">
          <mxGeometry x="170" y="250" width="100" height="30" as="geometry" />
        </mxCell>
        <mxCell id="mERwpeLYzUTZPkXKmUp4-12" value="&lt;font face=&quot;Garamond&quot; style=&quot;font-size: 13px&quot;&gt;&lt;b&gt;Privacy Policy HTMLs&lt;/b&gt;&lt;/font&gt;" style="text;html=1;strokeColor=none;fillColor=none;align=center;verticalAlign=middle;whiteSpace=wrap;rounded=0;" vertex="1" parent="1">
          <mxGeometry x="340" y="310" width="110" height="20" as="geometry" />
        </mxCell>
        <mxCell id="mERwpeLYzUTZPkXKmUp4-14" value="&lt;font face=&quot;Garamond&quot; size=&quot;1&quot;&gt;&lt;b style=&quot;font-size: 13px&quot;&gt;Privacy Policy Texts&lt;/b&gt;&lt;/font&gt;" style="text;html=1;strokeColor=none;fillColor=none;align=center;verticalAlign=middle;whiteSpace=wrap;rounded=0;" vertex="1" parent="1">
          <mxGeometry x="180" y="400" width="90" height="20" as="geometry" />
        </mxCell>
      </root>
    </mxGraphModel>
  </diagram>
</mxfile>
